<?xml version="1.0" encoding="UTF-8" standalone="no"?>
<svg
   xmlns:dc="http://purl.org/dc/elements/1.1/"
   xmlns:cc="http://creativecommons.org/ns#"
   xmlns:rdf="http://www.w3.org/1999/02/22-rdf-syntax-ns#"
   xmlns:svg="http://www.w3.org/2000/svg"
   xmlns="http://www.w3.org/2000/svg"
   xmlns:sodipodi="http://sodipodi.sourceforge.net/DTD/sodipodi-0.dtd"
   xmlns:inkscape="http://www.inkscape.org/namespaces/inkscape"
   width="200.0px"
   height="200.0px"
   viewBox="0 0 200.0 200.0"
   version="1.1"
   id="SVGRoot"
   sodipodi:docname="icono2.svg"
   inkscape:version="1.0.1 (1.0.1+r73)">
  <defs
     id="defs1690" />
  <sodipodi:namedview
     id="base"
     pagecolor="#ffffff"
     bordercolor="#666666"
     borderopacity="1.0"
     inkscape:pageopacity="0.0"
     inkscape:pageshadow="2"
     inkscape:zoom="1.979899"
     inkscape:cx="86.019224"
     inkscape:cy="115.55658"
     inkscape:document-units="px"
     inkscape:current-layer="layer1"
     inkscape:document-rotation="0"
     showgrid="true"
     inkscape:window-width="1366"
     inkscape:window-height="731"
     inkscape:window-x="0"
     inkscape:window-y="0"
     inkscape:window-maximized="1">
    <inkscape:grid
       type="xygrid"
       id="grid2260" />
  </sodipodi:namedview>
  <metadata
     id="metadata1693">
    <rdf:RDF>
      <cc:Work
         rdf:about="">
        <dc:format>image/svg+xml</dc:format>
        <dc:type
           rdf:resource="http://purl.org/dc/dcmitype/StillImage" />
        <dc:title></dc:title>
      </cc:Work>
    </rdf:RDF>
  </metadata>
  <g
     inkscape:label="Layer 1"
     inkscape:groupmode="layer"
     id="layer1">
    <path
       id="rect972"
       style="fill:#153d70;fill-opacity:1;stroke:#153d70;stroke-width:0.245822;stroke-miterlimit:4;stroke-dasharray:none;stroke-opacity:1"
       d="M 100,0 A 99.877075,99.877075 0 0 0 0.12292,99.87708 99.877075,99.877075 0 0 0 100,199.75417 99.877075,99.877075 0 0 0 199.87709,99.87708 99.877075,99.877075 0 0 0 100,0 Z" />
    <path
       style="display:inline;fill:#e8cf1d;fill-opacity:1;stroke:#e8cf1d;stroke-width:0.274877;stroke-linecap:butt;stroke-linejoin:miter;stroke-miterlimit:4;stroke-dasharray:none;stroke-opacity:1"
       d="m 95.95803,14.684098 -13.282978,24.419177 -42.754458,24.77608 -0.0051,61.390845 98.346086,-0.20234 8.55475,14.68803 -121.582346,-0.0324 -0.02476,-84.488295 z"
       id="path957" />
    <path
       style="display:inline;fill:#e8cf1d;fill-opacity:1;stroke:#e8cf1d;stroke-width:0.274447px;stroke-linecap:butt;stroke-linejoin:miter;stroke-opacity:1"
       d="m 30.71601,147.29518 27.899865,0.0628 44.138195,25.02503 50.91017,-30.04268 -46.86094,-85.489189 8.00159,-14.462872 61.08412,103.650801 -73.40377,44.04015 z"
       id="path967" />
    <path
       style="display:inline;fill:#e8cf1d;fill-opacity:1;stroke:#e8cf1d;stroke-width:0.274447px;stroke-linecap:butt;stroke-linejoin:miter;stroke-opacity:1"
       d="m 46.583942,118.53982 16.726576,-0.10911 48.100002,-84.830993 53.57398,30.074145 0.0738,47.817108 14.53085,26.2086 L 180,55 105.97815,13.238982 Z"
       id="path969" />
  </g>
</svg>
